<?xml version="1.0" encoding="UTF-8" standalone="no"?>
<!DOCTYPE svg PUBLIC "-//W3C//DTD SVG 1.1//EN" "http://www.w3.org/Graphics/SVG/1.1/DTD/svg11.dtd">
<svg width="100%" height="100%" viewBox="0 0 284 284" version="1.1" xmlns="http://www.w3.org/2000/svg" xmlns:xlink="http://www.w3.org/1999/xlink" xml:space="preserve" xmlns:serif="http://www.serif.com/" style="fill-rule:evenodd;clip-rule:evenodd;stroke-linejoin:round;stroke-miterlimit:2;">
    <g transform="matrix(1,0,0,1,-834.19,-120.7)">
        <rect x="834.19" y="120.7" width="283.46" height="283.46" style="fill:rgb(24,2,48);"/>
    </g>
    <g transform="matrix(1,0,0,1,-834.19,-120.7)">
        <rect x="834.19" y="120.7" width="283.46" height="283.46" style="fill:url(#_Linear1);"/>
    </g>
    <g transform="matrix(1,0,0,1,-834.19,-120.7)">
        <clipPath id="_clip2">
            <path d="M1093.19,128.117L859.171,136.289L867.457,373.555L1101.47,365.383L1093.19,128.117Z"/>
        </clipPath>
        <g clip-path="url(#_clip2)">
            <g transform="matrix(1,0,0,1,834.19,120.7)">
                <path d="M183.05,127.11L183.19,127.11C184.79,127.79 186.36,127.25 187.86,126.8C188.965,126.363 190.035,125.842 191.06,125.24C192.16,124.815 192.958,123.842 193.16,122.68C193.5,120.58 194.67,119.54 196.91,119.26C198.7,119.129 200.359,118.264 201.49,116.87C202.834,115.113 204.069,113.277 205.19,111.37C205.927,109.849 206.565,108.283 207.1,106.68C208.23,106.41 209.31,106.19 210.36,105.89C211.41,105.59 212.65,105.1 213.82,104.81C216.11,104.24 218.46,103.86 220.73,103.23C223.94,102.33 227.14,101.5 230.4,100.77C235.46,99.64 240.58,98.77 245.57,97.28C247.68,96.795 249.822,96.461 251.98,96.28C253.517,95.97 255.092,95.899 256.65,96.07C258,96.28 259.37,96.33 260.73,96.46C261.25,96.46 261.84,96.53 261.99,95.93C262.049,95.504 261.954,95.071 261.72,94.71C260.752,93.33 259.298,92.366 257.65,92.01C257.029,91.825 256.456,91.508 255.97,91.08C254.41,89.64 252.97,88.08 251.38,86.65C250.457,85.785 249.452,85.011 248.38,84.34C246.93,83.44 245.33,82.76 243.88,81.86C241.83,80.58 239.88,79.07 237.83,77.86C235.854,76.747 233.818,75.745 231.73,74.86C229.05,73.68 226.52,72.16 223.64,71.46C222.17,71.11 220.72,70.67 219.26,70.27C215.457,69.072 211.497,68.449 207.51,68.42C206.86,68.42 206.22,68.56 205.57,68.61C203.501,68.663 201.448,68.999 199.47,69.61C199.062,69.701 198.647,69.758 198.23,69.78C198.28,69.18 198.31,68.78 198.35,68.3C198.53,66.14 198.86,63.99 198.87,61.83C198.87,58.71 199,55.55 198.15,52.49C197.53,50.26 196.83,48.04 196.04,45.86C195.338,43.534 194.213,41.357 192.72,39.44C191.17,37.65 189.66,35.81 187.97,34.16C185.415,31.575 183.173,28.699 181.29,25.59C179.85,23.281 178.246,21.079 176.49,19C174.81,17 173.13,15.1 172.77,12.39C172.672,12.065 172.453,11.79 172.16,11.62C171.731,11.313 171.217,11.149 170.689,11.149C169.324,11.149 168.192,12.255 168.16,13.62C168.119,15.48 167.694,17.312 166.91,19C166.604,19.847 166.442,20.739 166.43,21.64C166.33,22.39 166.34,23.15 166.21,23.88C165.96,25.27 165.63,26.65 165.37,28.04C164.922,31.291 164.688,34.568 164.67,37.85C164.55,40.07 164.32,42.28 164.26,44.5C164.11,50.95 165.83,56.98 168.46,62.8C169.043,63.686 169.311,64.743 169.22,65.8C168.83,66.04 168.49,66.25 168.16,66.47C167.048,67.033 166.022,67.75 165.11,68.6C164.4,69.46 163.85,69.39 162.93,69.28C161.139,68.991 159.306,69.114 157.57,69.64C156.259,70.122 155.005,70.746 153.83,71.5C152.395,72.407 151.055,73.456 149.83,74.63C147.83,76.49 145.97,78.46 144.12,80.45C142.115,82.528 141.184,85.423 141.6,88.28C140.38,88.57 139.22,88.92 138.04,89.11C135.212,89.655 132.445,90.479 129.78,91.57C125,93.35 120.24,95.19 115.47,97C114.681,97.413 113.854,97.748 113,98C111.711,98.259 110.499,98.813 109.46,99.62C108.637,100.198 107.771,100.713 106.87,101.16C103.61,102.85 100.31,104.48 97.07,106.16C94.8,107.37 92.6,108.7 90.35,109.94C88.27,111.08 86.23,112.31 84.07,113.26C79.531,115.367 74.711,116.805 69.76,117.53C68.47,117.7 67.18,117.93 65.9,118.21C63.647,118.756 61.363,119.167 59.06,119.44C56.6,119.607 54.164,120.025 51.79,120.69C50.928,120.977 50.05,121.211 49.16,121.39C46.762,121.794 44.478,122.704 42.46,124.06C39,126.45 36,129.16 34,133C32.917,135.166 32.091,137.452 31.54,139.81C30.903,142.257 30.527,144.764 30.42,147.29C30.36,149.6 30.17,151.91 30.07,154.23C30.01,155.84 29.9,157.46 29.99,159.07C30.14,161.74 30.45,164.4 30.65,167.07C30.82,169.19 30.81,171.32 31.08,173.42C31.49,176.62 32.08,179.8 32.58,182.98C32.85,184.57 33.16,186.16 33.47,187.74C33.95,190.22 34.437,192.693 34.93,195.16C35.08,195.96 35.26,196.75 35.35,197.55C35.61,199.81 35.76,202.08 36.08,204.32C36.309,206.325 36.687,208.311 37.21,210.26C38.358,214.348 38.771,218.608 38.43,222.84C38.165,225.859 38.245,228.899 38.67,231.9C39.017,234.087 39.447,236.263 39.96,238.43C40.693,242.108 42.166,245.599 44.29,248.69C45.464,250.57 47.453,251.796 49.66,252C52.6,252.22 55.43,251.5 58.28,251C59.72,250.75 61.13,250.4 62.55,250.08C62.948,250.009 63.337,249.895 63.71,249.74C66.318,248.518 68.734,246.921 70.88,245C73.95,242.16 77.05,239.36 80.15,236.54C80.748,235.917 81.523,235.491 82.37,235.32C82.754,235.207 83.113,235.024 83.43,234.78C84.43,234.13 85.43,233.43 86.43,232.78C87.769,231.995 89.183,231.345 90.65,230.84C92.419,230.125 94.275,229.647 96.17,229.42C100.45,229.03 104.73,228.78 109.01,228.42C113.79,228.04 118.56,227.6 123.33,227.21C126.09,226.99 128.85,226.83 131.61,226.53C136.43,226.01 141.25,225.61 145.91,224.21C148.503,223.481 150.897,222.171 152.91,220.38C155.622,217.802 157.902,214.803 159.66,211.5C161.005,208.954 162.013,206.245 162.66,203.44C163.54,200.325 164.126,197.134 164.41,193.91C164.74,189.44 164.98,184.96 165.19,180.48C165.337,177.247 165.423,174.017 165.45,170.79C165.45,168.79 165.3,166.79 165.25,164.74C165.13,160.09 164.98,155.44 164.95,150.79C164.865,145.724 165.782,140.69 167.65,135.98C169.308,131.624 171.934,127.702 175.33,124.51C175.65,124.21 176.01,123.95 176.33,123.69L179.07,125.49" style="fill:white;fill-rule:nonzero;"/>
            </g>
            <g transform="matrix(1,0,0,1,834.19,120.7)">
                <path d="M141.54,88.35C141.124,85.493 142.055,82.598 144.06,80.52C145.91,78.52 147.79,76.52 149.77,74.7C150.995,73.526 152.335,72.477 153.77,71.57C154.945,70.816 156.199,70.192 157.51,69.71C159.246,69.182 161.08,69.062 162.87,69.36C163.8,69.46 164.34,69.53 165.05,68.67C165.962,67.824 166.989,67.11 168.1,66.55C168.43,66.32 168.77,66.11 169.16,65.87C169.251,64.813 168.983,63.756 168.4,62.87C165.77,57.05 164.05,51.02 164.2,44.57C164.26,42.35 164.49,40.14 164.61,37.92C164.628,34.638 164.862,31.361 165.31,28.11C165.57,26.72 165.9,25.34 166.15,23.96C166.28,23.22 166.27,22.46 166.37,21.71C166.382,20.809 166.544,19.917 166.85,19.07C167.634,17.382 168.059,15.55 168.1,13.69C168.132,12.325 169.264,11.219 170.629,11.219C171.157,11.219 171.671,11.383 172.1,11.69C172.393,11.86 172.612,12.135 172.71,12.46C173.07,15.17 174.71,17.11 176.43,19.07C178.192,21.138 179.802,23.331 181.25,25.63C183.157,28.732 185.423,31.598 188,34.17C189.69,35.82 191.2,37.66 192.75,39.45C194.243,41.367 195.368,43.544 196.07,45.87C196.86,48.05 197.56,50.27 198.18,52.5C199.03,55.56 198.91,58.72 198.9,61.84C198.9,64 198.56,66.15 198.38,68.31C198.38,68.75 198.31,69.19 198.26,69.79C198.678,69.773 199.093,69.716 199.5,69.62C201.481,69.009 203.537,68.672 205.61,68.62C206.25,68.62 206.89,68.45 207.54,68.43C211.527,68.459 215.487,69.082 219.29,70.28C220.75,70.68 222.2,71.12 223.67,71.48C226.55,72.17 229.08,73.69 231.76,74.87C233.85,75.751 235.886,76.753 237.86,77.87C239.95,79.08 241.86,80.59 243.91,81.87C245.36,82.77 246.91,83.45 248.41,84.35C249.482,85.021 250.487,85.795 251.41,86.66C252.98,88.1 254.41,89.66 256,91.09C256.486,91.518 257.059,91.835 257.68,92.02C259.328,92.376 260.782,93.34 261.75,94.72C261.984,95.081 262.079,95.514 262.02,95.94C261.87,96.54 261.29,96.52 260.76,96.47C259.4,96.34 258.03,96.29 256.68,96.08C255.122,95.909 253.547,95.98 252.01,96.29C249.852,96.471 247.71,96.805 245.6,97.29C240.6,98.76 235.49,99.65 230.43,100.78C227.17,101.51 223.97,102.34 220.76,103.24C218.49,103.87 216.14,104.24 213.85,104.82C212.68,105.11 211.55,105.57 210.39,105.9C209.23,106.23 208.26,106.42 207.13,106.69C206.597,108.294 205.959,109.86 205.22,111.38C204.099,113.287 202.864,115.123 201.52,116.88C200.39,118.276 198.731,119.142 196.94,119.27C194.7,119.55 193.53,120.59 193.19,122.69C192.988,123.852 192.19,124.825 191.09,125.25C190.065,125.852 188.995,126.373 187.89,126.81C186.39,127.26 184.82,127.81 183.22,127.12C183.17,127.12 183.12,127.07 183.08,127.12C181.693,126.732 180.352,126.195 179.08,125.52L176.34,123.71C176.02,123.97 175.66,124.23 175.34,124.53C171.933,127.719 169.297,131.642 167.63,136C165.767,140.712 164.849,145.744 164.93,150.81C164.93,155.46 165.11,160.11 165.23,164.76C165.28,166.76 165.45,168.76 165.43,170.81C165.43,174.037 165.343,177.267 165.17,180.5C164.96,184.98 164.72,189.5 164.39,193.93C164.106,197.154 163.52,200.345 162.64,203.46C161.993,206.265 160.985,208.974 159.64,211.52C157.884,214.822 155.608,217.821 152.9,220.4C150.885,222.188 148.492,223.497 145.9,224.23C141.24,225.63 136.42,226.03 131.6,226.55C128.84,226.85 126.08,227.01 123.32,227.23C118.55,227.62 113.78,228.06 109,228.44C104.73,228.78 100.44,229.03 96.16,229.44C94.265,229.667 92.409,230.145 90.64,230.86C89.173,231.365 87.759,232.015 86.42,232.8C85.42,233.43 84.42,234.13 83.42,234.8C83.103,235.044 82.744,235.227 82.36,235.34C81.513,235.511 80.738,235.937 80.14,236.56C77.04,239.38 73.94,242.18 70.87,245.02C68.726,246.938 66.31,248.529 63.7,249.74C63.329,249.903 62.939,250.021 62.54,250.09C61.12,250.41 59.71,250.76 58.28,251.01C55.42,251.51 52.59,252.23 49.65,252.01C47.457,251.802 45.482,250.585 44.31,248.72C42.187,245.612 40.72,242.104 40,238.41C39.487,236.25 39.057,234.073 38.71,231.88C38.285,228.879 38.205,225.839 38.47,222.82C38.811,218.588 38.398,214.328 37.25,210.24C36.727,208.291 36.349,206.305 36.12,204.3C35.8,202.06 35.65,199.78 35.39,197.53C35.3,196.73 35.12,195.94 34.97,195.14C34.477,192.673 33.99,190.2 33.51,187.72C33.2,186.14 32.89,184.56 32.62,182.96C32.1,179.78 31.53,176.6 31.12,173.4C30.85,171.3 30.86,169.17 30.69,167.06C30.49,164.39 30.18,161.73 30.03,159.06C29.94,157.45 30.03,155.83 30.11,154.22C30.21,151.9 30.4,149.59 30.46,147.28C30.567,144.754 30.943,142.247 31.58,139.8C32.123,137.448 32.935,135.166 34,133C35.92,129.17 39,126.46 42.44,124.1C44.453,122.733 46.739,121.818 49.14,121.42C50.03,121.241 50.908,121.007 51.77,120.72C54.144,120.055 56.58,119.637 59.04,119.47C61.343,119.202 63.628,118.791 65.88,118.24C67.16,117.96 68.45,117.73 69.74,117.56C74.691,116.835 79.511,115.397 84.05,113.29C86.21,112.29 88.25,111.11 90.33,109.97C92.58,108.73 94.78,107.4 97.05,106.19C100.29,104.47 103.59,102.84 106.85,101.19C107.751,100.743 108.617,100.228 109.44,99.65C110.482,98.831 111.701,98.266 113,98C113.828,97.77 114.634,97.468 115.41,97.1C120.17,95.28 124.93,93.44 129.71,91.66C132.383,90.559 135.16,89.732 138,89.19C139.18,88.99 140.34,88.64 141.56,88.35M90.64,227.35C90.673,227.421 90.699,227.495 90.72,227.57C91.624,227.318 92.543,227.117 93.47,226.97C97.43,226.57 101.397,226.203 105.37,225.87C109.59,225.52 113.81,225.24 118.04,224.87C119.04,224.79 120.14,224.61 121.19,224.52C124.55,224.25 127.91,224.04 131.27,223.75C135.287,223.554 139.276,222.968 143.18,222C145.38,221.436 147.467,220.499 149.35,219.23C151.293,217.762 152.982,215.985 154.35,213.97C155.536,212.283 156.567,210.493 157.43,208.62C158.17,207.04 158.56,205.29 159.15,203.62C160.455,199.532 161.208,195.288 161.39,191C161.58,188.59 161.88,186.19 162.04,183.77C162.23,180.95 162.39,178.12 162.42,175.3C162.42,172.83 162.28,170.37 162.22,167.9C162.1,163.2 162.03,158.49 161.87,153.8C161.76,150.269 161.89,146.734 162.26,143.22C162.637,140.622 163.308,138.076 164.26,135.63C165.628,131.93 167.59,128.478 170.07,125.41C171.411,123.761 172.846,122.192 174.37,120.71C174.96,120.23 175.165,119.412 174.87,118.71C174.37,117.4 173.87,116.09 173.44,114.71C172.631,112.052 171.19,109.629 169.24,107.65C169.031,107.434 168.837,107.203 168.66,106.96C167.6,105.55 166.66,104.06 165.46,102.74C163.8,100.85 162.04,99.04 160.22,97.3C159.025,96.229 157.769,95.228 156.46,94.3C156.157,94.115 155.814,94.006 155.46,93.98C151.27,92.93 151.65,92.32 145.8,92.61C142.17,93.23 140.29,94.15 136.67,94.88C135.04,95.21 130.67,95.78 129.05,96.26C124.14,97.75 119.65,99.95 114.82,101.72C111.238,103.085 107.748,104.678 104.37,106.49C100.75,108.36 97.18,110.34 93.58,112.27C92.78,112.7 91.95,113.06 91.17,113.53C88.726,115.047 86.136,116.317 83.44,117.32C79.67,118.54 76,120 72,120.56C71.114,120.756 70.215,120.883 69.31,120.94C66.79,120.94 64.52,122.07 62.09,122.42C61.09,122.57 60.09,122.62 59.09,122.72C54.761,123.256 50.521,124.359 46.48,126C44.664,126.744 43.04,127.889 41.73,129.35C40.18,130.95 39.42,132.98 38.24,134.77C37.264,136.414 36.399,138.121 35.65,139.88C34.369,142.354 33.684,145.094 33.65,147.88C33.65,149.79 33.39,151.7 33.3,153.61C33.17,155.32 33.13,157.036 33.18,158.75C33.36,162.38 33.66,166 33.93,169.62C34.124,173.323 34.633,177.003 35.45,180.62C35.95,182.62 36.19,184.79 36.54,186.88C36.701,188.378 36.938,189.866 37.25,191.34C38.118,194.554 38.661,197.847 38.87,201.17C38.888,201.774 38.952,202.376 39.06,202.97C39.8,206.84 40.69,210.69 41.26,214.58C41.666,217.276 41.804,220.006 41.67,222.73C41.391,225.746 41.478,228.785 41.93,231.78C42.496,234.854 43.217,237.898 44.09,240.9C44.86,243.799 46.467,246.408 48.71,248.4C49.136,248.82 49.674,249.108 50.26,249.23C51.498,249.395 52.752,249.395 53.99,249.23C56.578,248.815 59.139,248.248 61.66,247.53C64.168,246.73 66.458,245.361 68.35,243.53C71.02,241.08 73.79,238.75 76.48,236.33C77.48,235.39 78.42,234.28 79.48,233.33C81.48,231.55 83.54,229.87 85.55,228.11C87.72,226.22 89.89,224.33 91.97,222.35C93.29,221.1 94.45,219.69 95.65,218.35C98.35,215.28 101.1,212.25 103.65,209.09C106.12,206.09 108.41,202.95 110.77,199.88C113.13,196.81 115.51,193.73 117.89,190.66C119.24,188.91 120.7,187.22 121.96,185.4C124.15,182.25 126.29,179.08 128.3,175.81C130.31,172.54 132.14,169.19 134,165.81C134.76,164.44 135.38,163 136.09,161.61C136.451,160.578 137.382,159.846 138.47,159.74C138.521,159.733 138.572,159.73 138.623,159.73C139.271,159.73 139.803,160.263 139.803,160.91C139.803,160.94 139.802,160.97 139.8,161C139.706,161.594 139.513,162.169 139.23,162.7C137.6,165.7 136.02,168.7 134.23,171.54C131.38,176.23 128.73,181.07 125.35,185.43C122.8,188.74 120.29,192.08 117.73,195.43C115.17,198.78 112.73,201.86 110.2,205.07C107.67,208.28 105.38,211.54 102.73,214.57C99.37,218.4 95.73,222 92.25,225.7C91.7,226.28 91.14,226.83 90.59,227.4M207.1,102.65C207.84,102.54 208.39,102.5 208.92,102.37C209.7,102.18 210.47,101.93 211.24,101.69C215.53,100.37 220.11,100.21 224.24,98.3C224.333,98.26 224.43,98.229 224.53,98.21C228.37,97.36 232.23,96.54 236.06,95.65C238.6,95.07 241.22,94.88 243.7,93.89C245.746,93.147 247.904,92.762 250.08,92.75C250.825,92.799 251.567,92.602 252.19,92.19L250.19,90.19C248.551,88.623 246.695,87.3 244.68,86.26C242.42,85.06 240.29,83.62 238.11,82.26C236.767,81.285 235.368,80.391 233.92,79.58C230.92,78.13 227.77,76.78 224.63,75.58C220.165,73.703 215.448,72.497 210.63,72C206.18,71.655 201.708,72.304 197.54,73.9C196.6,74.26 195.54,74.65 195.39,75.56C196.236,76.999 197.007,78.481 197.7,80C198.608,81.898 199.693,83.706 200.94,85.4C201.23,85.87 201.63,85.86 202.13,85.7C204.13,85.02 206.13,84.34 208.13,83.76C211.408,82.843 214.865,82.767 218.18,83.54C219.16,83.787 220.106,84.149 221,84.62C221.37,84.79 221.9,84.94 221.75,85.62C221.624,86.132 221.157,86.491 220.63,86.48C220.331,86.52 220.029,86.52 219.73,86.48C216.023,85.896 212.236,86.073 208.6,87C206.676,87.444 204.908,88.406 203.49,89.78C205.452,93.809 206.675,98.158 207.1,102.62M191.62,72.93C193.59,72.399 194.977,70.61 195,68.57C195.15,66.66 195.36,64.76 195.55,62.85C195.866,59.431 195.526,55.982 194.55,52.69C193.92,50.455 193.152,48.26 192.25,46.12C191.508,44.246 190.569,42.456 189.45,40.78C188.329,39.35 187.095,38.012 185.76,36.78C184.727,35.84 183.752,34.838 182.84,33.78C180.68,30.94 178.5,28.09 176.6,25.07C175.493,23.389 174.187,21.847 172.71,20.48C171.64,19.48 171.24,19.54 170.64,20.87C169.18,24.11 168.83,27.59 168.51,31.05C168.16,34.86 168.15,38.71 167.91,42.53C167.619,46.056 167.923,49.605 168.81,53.03C169.81,56.65 171.25,60.08 172.49,63.59C172.65,64.01 172.91,64.4 173.09,64.81C173.342,65.374 173.884,65.758 174.5,65.81C175.852,66.115 177.187,66.489 178.5,66.93C179.73,67.31 180.95,67.75 182.37,68.23C182.419,66.873 182.386,65.513 182.27,64.16C181.46,58.52 180.56,52.9 179.7,47.27C179.474,46.497 179.712,45.659 180.31,45.12C181.491,45.839 182.266,47.074 182.4,48.45C183.4,52.63 184.09,56.86 184.88,61.08C185.398,63.754 185.563,66.484 185.37,69.2L191.61,72.98" style="fill:rgb(26,23,27);fill-rule:nonzero;"/>
            </g>
            <g transform="matrix(1,0,0,1,834.19,120.7)">
                <path d="M169.61,70.76C171.28,70.571 172.97,70.663 174.61,71.03C175.81,71.4 177.07,71.61 178.22,72.09C181.67,73.54 185.02,74.54 187.66,77.23C188.945,78.27 190.106,79.454 191.12,80.76C193.53,82.44 194.97,85.62 195.97,88.26C196.163,88.831 196.414,89.381 196.72,89.9C198.787,93.392 200.429,97.118 201.61,101C202.635,103.682 202.482,106.676 201.19,109.24C200.61,110.36 200.19,111.55 199.63,112.69C199.115,113.952 197.852,114.757 196.49,114.69C196.43,114.53 196.29,114.35 196.31,114.18C196.463,110.679 195.777,107.192 194.31,104.01C193.707,102.667 192.796,101.484 191.65,100.56C191.078,100.02 190.187,99.981 189.57,100.47C188.903,100.958 188.654,101.846 188.97,102.61C189.512,103.373 190.013,104.164 190.47,104.98C191.47,107.35 192.6,109.65 192.77,112.3C192.87,113.452 192.604,114.607 192.01,115.6C191.68,116.158 191.443,116.766 191.31,117.4C190.6,120.89 188.31,122.21 185.18,122.31C184.486,122.181 183.844,121.854 183.33,121.37C182.012,120.186 180.968,118.729 180.27,117.1C179.351,115.358 178.627,113.52 178.11,111.62C177.566,110.273 176.861,108.997 176.01,107.82C175.61,107.13 175.2,106.43 174.74,105.82C173.723,104.254 172.568,102.782 171.29,101.42C169.1,99.2 167.13,96.76 165.06,94.42C164.635,93.917 164.17,93.449 163.67,93.02C161.136,90.864 158.369,88.999 155.42,87.46C154.19,86.88 152.88,86.46 151.62,85.98C150.36,85.5 149.3,84.98 148.16,84.5C147.33,84.1 147.16,83.56 147.63,82.81C148.408,81.32 149.504,80.02 150.84,79C151.707,78.253 152.492,77.415 153.18,76.5C153.584,76.055 154.045,75.665 154.55,75.34C155.394,74.791 156.277,74.304 157.19,73.88C159.125,73.077 161.331,73.236 163.13,74.31C165.01,75.25 166.64,76.68 168.83,77C169.415,77.158 169.956,77.449 170.41,77.85C171.61,78.76 172.78,79.72 173.95,80.68C174.446,81.051 174.881,81.496 175.24,82C176.03,83.22 177.31,83.89 178.24,84.9C178.494,85.193 178.864,85.361 179.252,85.361C179.848,85.361 180.376,84.963 180.54,84.39C181.04,83.366 180.936,82.145 180.27,81.22C178.32,78.599 176.094,76.195 173.63,74.05C172.812,73.465 171.933,72.969 171.01,72.57C170.643,72.397 170.306,72.168 170.01,71.89C169.807,71.536 169.652,71.156 169.55,70.76" style="fill:white;fill-rule:nonzero;"/>
            </g>
            <g transform="matrix(1,0,0,1,834.19,120.7)">
                <path d="M191.62,72.93L185.38,69.15C185.573,66.434 185.408,63.704 184.89,61.03C184.1,56.81 183.36,52.58 182.41,48.4C182.276,47.024 181.501,45.789 180.32,45.07C179.722,45.609 179.484,46.447 179.71,47.22C180.57,52.85 181.47,58.47 182.28,64.11C182.396,65.463 182.429,66.823 182.38,68.18C180.96,67.7 179.74,67.26 178.51,66.88C177.197,66.439 175.862,66.065 174.51,65.76C173.894,65.708 173.352,65.324 173.1,64.76C172.92,64.35 172.66,63.96 172.5,63.54C171.26,60.03 169.81,56.6 168.82,52.98C167.933,49.555 167.629,46.006 167.92,42.48C168.16,38.66 168.17,34.81 168.52,31C168.84,27.54 169.19,24.06 170.65,20.82C171.25,19.49 171.65,19.4 172.72,20.43C174.197,21.797 175.503,23.339 176.61,25.02C178.51,28.02 180.69,30.89 182.85,33.73C183.762,34.788 184.737,35.79 185.77,36.73C187.105,37.962 188.339,39.3 189.46,40.73C190.579,42.406 191.518,44.196 192.26,46.07C193.162,48.21 193.93,50.405 194.56,52.64C195.536,55.932 195.876,59.381 195.56,62.8C195.37,64.71 195.16,66.61 195.01,68.52C194.989,70.554 193.612,72.341 191.65,72.88" style="fill:white;fill-rule:nonzero;"/>
            </g>
            <g transform="matrix(1,0,0,1,834.19,120.7)">
                <path d="M84.35,133.36C84.585,133.166 84.836,132.993 85.1,132.84C87.86,131.39 90.59,129.84 93.39,128.56C96.81,127.02 100.3,125.72 103.76,124.38C104.661,124.069 105.583,123.825 106.52,123.65C109.61,122.92 112.71,122.24 115.8,121.48C117.72,121.02 119.64,120.4 121.56,119.94C122.94,119.6 124.32,119.37 125.7,119.14C128.76,118.64 131.81,118.14 134.86,117.68C138.243,117.038 141.669,116.654 145.11,116.53C146.3,116.53 147.51,116.4 148.71,116.34C149.547,116.283 150.286,116.914 150.36,117.75C150.502,118.663 149.995,119.561 149.14,119.91C148.835,120.076 148.483,120.136 148.14,120.08C144.07,118.91 139.62,120.02 135.24,120.71C132.48,121.14 129.72,121.59 126.97,121.98C124.57,122.331 122.193,122.822 119.85,123.45C117.51,124.08 115.17,124.66 112.85,125.1C109.813,125.623 106.833,126.433 103.95,127.52C102.64,128.03 101.29,128.29 99.95,128.79C97.76,129.64 95.58,130.57 93.41,131.51C92.167,132.03 90.952,132.614 89.77,133.26C88.36,134.06 87.01,134.99 85.62,135.84C85.232,136.125 84.804,136.351 84.35,136.51C83.88,136.65 83.35,136.51 83.35,136.04C83.389,135.373 83.527,134.716 83.76,134.09C83.76,133.92 84.07,133.76 84.45,133.36" style="fill:rgb(26,23,27);fill-rule:nonzero;"/>
            </g>
            <g transform="matrix(1,0,0,1,834.19,120.7)">
                <path d="M73.24,170C76.459,166.606 80.09,163.63 84.05,161.14C86.05,159.96 88.05,158.9 89.98,157.9C92.81,156.49 95.64,155.16 98.47,153.9C99.405,153.482 100.376,153.147 101.37,152.9C102.2,152.68 102.85,152.85 103.09,153.52C103.232,154.221 102.988,154.948 102.45,155.42C101.72,156.27 100.86,156.92 100.11,156.74C98.39,156.32 96.48,157.29 94.61,158.37C91.09,160.417 87.587,162.55 84.1,164.77C79.922,167.441 76.105,170.637 72.74,174.28C71.11,176.04 69.51,177.83 67.92,179.62C67.504,180.041 67.132,180.504 66.81,181C64.81,184.48 62.59,187.95 60.9,191.5C60.71,191.91 60.68,192.34 60.47,192.76C60.3,193.144 60.047,193.485 59.73,193.76C59.31,194.08 58.91,194.09 58.67,193.76C58.144,193.091 57.976,192.205 58.22,191.39C58.525,190.109 58.993,188.873 59.61,187.71C60.785,185.139 62.258,182.716 64,180.49C64.45,179.95 64.9,179.4 65.37,178.87C67.09,176.93 68.83,175.01 70.55,173.08C71.55,171.9 72.63,170.71 73.27,169.98" style="fill:rgb(26,23,27);fill-rule:nonzero;"/>
            </g>
        </g>
    </g>
    <defs>
        <linearGradient id="_Linear1" x1="0" y1="0" x2="1" y2="0" gradientUnits="userSpaceOnUse" gradientTransform="matrix(3.13718e-14,512.34,-512.34,3.13718e-14,974.406,-0.76)"><stop offset="0" style="stop-color:rgb(253,96,88);stop-opacity:1"/><stop offset="0.41" style="stop-color:rgb(253,59,94);stop-opacity:1"/><stop offset="1" style="stop-color:rgb(147,14,163);stop-opacity:1"/></linearGradient>
    </defs>
</svg>
